%TF.GenerationSoftware,KiCad,Pcbnew,7.0.10*%
%TF.CreationDate,2024-02-28T00:26:24+11:00*%
%TF.ProjectId,wahoo30,7761686f-6f33-4302-9e6b-696361645f70,rev?*%
%TF.SameCoordinates,Original*%
%TF.FileFunction,Paste,Bot*%
%TF.FilePolarity,Positive*%
%FSLAX46Y46*%
G04 Gerber Fmt 4.6, Leading zero omitted, Abs format (unit mm)*
G04 Created by KiCad (PCBNEW 7.0.10) date 2024-02-28 00:26:24*
%MOMM*%
%LPD*%
G01*
G04 APERTURE LIST*
G04 Aperture macros list*
%AMRoundRect*
0 Rectangle with rounded corners*
0 $1 Rounding radius*
0 $2 $3 $4 $5 $6 $7 $8 $9 X,Y pos of 4 corners*
0 Add a 4 corners polygon primitive as box body*
4,1,4,$2,$3,$4,$5,$6,$7,$8,$9,$2,$3,0*
0 Add four circle primitives for the rounded corners*
1,1,$1+$1,$2,$3*
1,1,$1+$1,$4,$5*
1,1,$1+$1,$6,$7*
1,1,$1+$1,$8,$9*
0 Add four rect primitives between the rounded corners*
20,1,$1+$1,$2,$3,$4,$5,0*
20,1,$1+$1,$4,$5,$6,$7,0*
20,1,$1+$1,$6,$7,$8,$9,0*
20,1,$1+$1,$8,$9,$2,$3,0*%
G04 Aperture macros list end*
%ADD10RoundRect,0.250000X-0.450000X0.325000X-0.450000X-0.325000X0.450000X-0.325000X0.450000X0.325000X0*%
%ADD11RoundRect,0.250000X-0.450000X0.350000X-0.450000X-0.350000X0.450000X-0.350000X0.450000X0.350000X0*%
%ADD12RoundRect,0.250000X-0.350000X-0.450000X0.350000X-0.450000X0.350000X0.450000X-0.350000X0.450000X0*%
%ADD13R,0.600000X1.450000*%
%ADD14R,0.300000X1.450000*%
%ADD15RoundRect,0.250000X-0.325000X-0.450000X0.325000X-0.450000X0.325000X0.450000X-0.325000X0.450000X0*%
%ADD16RoundRect,0.150000X0.512500X0.150000X-0.512500X0.150000X-0.512500X-0.150000X0.512500X-0.150000X0*%
%ADD17RoundRect,0.217500X-0.457500X0.217500X-0.457500X-0.217500X0.457500X-0.217500X0.457500X0.217500X0*%
%ADD18RoundRect,0.100000X-0.100000X0.637500X-0.100000X-0.637500X0.100000X-0.637500X0.100000X0.637500X0*%
%ADD19RoundRect,0.250000X0.350000X0.450000X-0.350000X0.450000X-0.350000X-0.450000X0.350000X-0.450000X0*%
G04 APERTURE END LIST*
D10*
%TO.C,D22*%
X162255000Y-31758000D03*
X162255000Y-33808000D03*
%TD*%
%TO.C,F1*%
X119126000Y-42917000D03*
X119126000Y-44967000D03*
%TD*%
%TO.C,D1*%
X45720000Y-31749000D03*
X45720000Y-33799000D03*
%TD*%
%TO.C,D11*%
X86055000Y-50300000D03*
X86055000Y-52350000D03*
%TD*%
D11*
%TO.C,R4*%
X32450000Y-47243000D03*
X32450000Y-49243000D03*
%TD*%
D10*
%TO.C,D23*%
X162255000Y-50808000D03*
X162255000Y-52858000D03*
%TD*%
%TO.C,D8*%
X83769000Y-50300000D03*
X83769000Y-52350000D03*
%TD*%
D12*
%TO.C,R1*%
X129632000Y-30572000D03*
X131632000Y-30572000D03*
%TD*%
D10*
%TO.C,D10*%
X86055000Y-31758000D03*
X86055000Y-33808000D03*
%TD*%
%TO.C,D20*%
X159969000Y-50808000D03*
X159969000Y-52858000D03*
%TD*%
D13*
%TO.C,J3*%
X119813000Y-31604000D03*
X120613000Y-31604000D03*
D14*
X121813000Y-31604000D03*
X122813000Y-31604000D03*
X123313000Y-31604000D03*
X124313000Y-31604000D03*
D13*
X125513000Y-31604000D03*
X126313000Y-31604000D03*
X126313000Y-31604000D03*
X125513000Y-31604000D03*
D14*
X124813000Y-31604000D03*
X123813000Y-31604000D03*
X122313000Y-31604000D03*
X121313000Y-31604000D03*
D13*
X120613000Y-31604000D03*
X119813000Y-31604000D03*
%TD*%
D10*
%TO.C,D24*%
X162255000Y-69858000D03*
X162255000Y-71908000D03*
%TD*%
D15*
%TO.C,C1*%
X64964000Y-56151000D03*
X67014000Y-56151000D03*
%TD*%
D10*
%TO.C,D19*%
X159969000Y-31758000D03*
X159969000Y-33808000D03*
%TD*%
%TO.C,D31*%
X127254000Y-42917000D03*
X127254000Y-44967000D03*
%TD*%
%TO.C,D28*%
X200609000Y-31758000D03*
X200609000Y-33808000D03*
%TD*%
%TO.C,D12*%
X86055000Y-69858000D03*
X86055000Y-71908000D03*
%TD*%
%TO.C,D14*%
X121869000Y-50808000D03*
X121869000Y-52858000D03*
%TD*%
%TO.C,D26*%
X198069000Y-53856000D03*
X198069000Y-55906000D03*
%TD*%
%TO.C,D25*%
X198323000Y-31758000D03*
X198323000Y-33808000D03*
%TD*%
D15*
%TO.C,C3*%
X64964000Y-58437000D03*
X67014000Y-58437000D03*
%TD*%
D10*
%TO.C,D30*%
X200355000Y-73143000D03*
X200355000Y-75193000D03*
%TD*%
%TO.C,D2*%
X45720000Y-53602000D03*
X45720000Y-55652000D03*
%TD*%
%TO.C,D9*%
X83769000Y-69858000D03*
X83769000Y-71908000D03*
%TD*%
%TO.C,D16*%
X142240000Y-31741000D03*
X142240000Y-33791000D03*
%TD*%
%TO.C,D15*%
X121869000Y-69858000D03*
X121869000Y-71908000D03*
%TD*%
%TO.C,D5*%
X47955000Y-53602000D03*
X47955000Y-55652000D03*
%TD*%
%TO.C,D17*%
X124155000Y-50808000D03*
X124155000Y-52858000D03*
%TD*%
D16*
%TO.C,U2*%
X124139500Y-36134000D03*
X124139500Y-37084000D03*
X124139500Y-38034000D03*
X121864500Y-38034000D03*
X121864500Y-37084000D03*
X121864500Y-36134000D03*
%TD*%
D10*
%TO.C,D21*%
X159969000Y-69858000D03*
X159969000Y-71908000D03*
%TD*%
%TO.C,D18*%
X124155000Y-69858000D03*
X124155000Y-71908000D03*
%TD*%
D17*
%TO.C,U1*%
X66958000Y-48196000D03*
X65278000Y-48196000D03*
X66958000Y-49276000D03*
X65278000Y-49276000D03*
D18*
X63193000Y-45848500D03*
X63843000Y-45848500D03*
X64493000Y-45848500D03*
X65143000Y-45848500D03*
X65793000Y-45848500D03*
X66443000Y-45848500D03*
X67093000Y-45848500D03*
X67743000Y-45848500D03*
X68393000Y-45848500D03*
X69043000Y-45848500D03*
X69043000Y-51623500D03*
X68393000Y-51623500D03*
X67743000Y-51623500D03*
X67093000Y-51623500D03*
X66443000Y-51623500D03*
X65793000Y-51623500D03*
X65143000Y-51623500D03*
X64493000Y-51623500D03*
X63843000Y-51623500D03*
X63193000Y-51623500D03*
%TD*%
D10*
%TO.C,D4*%
X48006000Y-31749000D03*
X48006000Y-33799000D03*
%TD*%
%TO.C,D7*%
X83769000Y-31749000D03*
X83769000Y-33799000D03*
%TD*%
%TO.C,D13*%
X103886000Y-31749000D03*
X103886000Y-33799000D03*
%TD*%
%TO.C,D29*%
X200355000Y-53856000D03*
X200355000Y-55906000D03*
%TD*%
%TO.C,D27*%
X198069000Y-73143000D03*
X198069000Y-75193000D03*
%TD*%
%TO.C,D3*%
X45720000Y-73397000D03*
X45720000Y-75447000D03*
%TD*%
%TO.C,D6*%
X47955000Y-73414000D03*
X47955000Y-75464000D03*
%TD*%
D19*
%TO.C,R2*%
X116392000Y-30572000D03*
X114392000Y-30572000D03*
%TD*%
M02*
