M48
; DRILL file {KiCad 7.0.10} date Wed 28 Feb 2024 12:26:21 AM AEDT
; FORMAT={-:-/ absolute / inch / decimal}
; #@! TF.CreationDate,2024-02-28T00:26:21+11:00
; #@! TF.GenerationSoftware,Kicad,Pcbnew,7.0.10
; #@! TF.FileFunction,Plated,1,2,PTH
FMAT,2
INCH
; #@! TA.AperFunction,Plated,PTH,ViaDrill
T1C0.0157
; #@! TA.AperFunction,Plated,PTH,ComponentDrill
T2C0.0236
; #@! TA.AperFunction,Plated,PTH,ComponentDrill
T3C0.0315
; #@! TA.AperFunction,Plated,PTH,ComponentDrill
T4C0.0591
%
G90
G05
T1
X1.2248Y-2.0548
X1.26Y-1.7592
X1.36Y-1.7415
X1.73Y-1.33
X1.9495Y-2.8201
X1.9498Y-2.0598
X1.95Y-1.33
X1.95Y-2.1
X1.95Y-2.86
X2.31Y-1.7415
X2.38Y-1.7237
X2.3825Y-1.8279
X2.46Y-1.6815
X2.485Y-2.12
X2.4868Y-1.6527
X2.51Y-2.45
X2.5221Y-1.635
X2.542Y-2.12
X2.5608Y-1.6175
X2.58Y-2.14
X2.6142Y-2.1595
X2.62Y-2.12
X2.65Y-2.45
X2.6528Y-2.0915
X2.6528Y-2.1485
X2.67Y-1.5604
X2.67Y-1.5998
X2.67Y-1.71
X2.69Y-2.38
X2.7915Y-1.7625
X3.1943Y-1.8374
X3.2015Y-1.6552
X3.23Y-1.854
X3.23Y-2.73
X3.231Y-1.6291
X3.24Y-1.33
X3.3Y-1.7437
X3.45Y-1.33
X3.45Y-1.98
X3.45Y-2.08
X3.45Y-2.7
X3.45Y-2.75
X3.45Y-2.83
X4.15Y-1.33
X4.19Y-1.8185
X4.32Y-1.74
X4.35Y-1.71
X4.35Y-1.8756
X4.3828Y-1.6882
X4.3842Y-1.8952
X4.42Y-1.66
X4.4202Y-1.9111
X4.5Y-2.0
X4.64Y-1.28
X4.69Y-1.82
X4.73Y-2.75
X4.7698Y-1.3098
X4.8298Y-1.1698
X4.8787Y-1.6283
X4.88Y-1.31
X4.9085Y-1.6026
X4.92Y-1.31
X4.95Y-1.46
X4.95Y-2.75
X4.95Y-2.83
X4.96Y-2.0
X4.96Y-2.08
X5.01Y-1.82
X5.07Y-1.9
X5.0752Y-1.8485
X5.1Y-1.27
X5.11Y-1.9748
X5.1103Y-1.9
X5.14Y-1.87
X5.15Y-1.9748
X5.55Y-1.33
X5.55Y-1.82
X5.82Y-1.95
X6.23Y-2.0
X6.23Y-2.75
X6.24Y-1.33
X6.44Y-1.33
X6.46Y-2.0
X6.46Y-2.08
X6.46Y-2.75
X6.46Y-2.83
X6.57Y-1.97
X7.32Y-1.9
X7.73Y-2.0
X7.73Y-2.75
X7.75Y-1.33
X7.96Y-2.09
X7.96Y-2.85
X7.97Y-1.33
X8.07Y-1.81
T3
X1.165Y-1.8613
X1.165Y-1.94
X1.165Y-2.6156
X1.165Y-2.6944
T4
X1.32Y-1.43
X1.32Y-2.18
X1.32Y-2.93
X1.57Y-1.33
X1.57Y-2.08
X1.57Y-2.83
X2.07Y-1.43
X2.07Y-2.18
X2.07Y-2.93
X2.32Y-1.33
X2.32Y-2.08
X2.32Y-2.83
X2.82Y-1.43
X2.82Y-2.18
X2.82Y-2.93
X3.07Y-1.33
X3.07Y-2.08
X3.07Y-2.83
X3.57Y-1.43
X3.57Y-2.18
X3.57Y-2.93
X3.82Y-1.33
X3.82Y-2.08
X3.82Y-2.83
X4.32Y-1.43
X4.32Y-2.18
X4.32Y-2.93
X4.57Y-1.33
X4.57Y-2.08
X4.57Y-2.83
X5.07Y-1.43
X5.07Y-2.18
X5.07Y-2.93
X5.32Y-1.33
X5.32Y-2.08
X5.32Y-2.83
X5.82Y-1.43
X5.82Y-2.18
X5.82Y-2.93
X6.07Y-1.33
X6.07Y-2.08
X6.07Y-2.83
X6.57Y-1.43
X6.57Y-2.18
X6.57Y-2.93
X6.82Y-1.33
X6.82Y-2.08
X6.82Y-2.83
X7.32Y-1.43
X7.32Y-2.18
X7.32Y-2.93
X7.57Y-1.33
X7.57Y-2.08
X7.57Y-2.83
X8.07Y-1.43
X8.07Y-2.18
X8.07Y-2.93
X8.32Y-1.33
X8.32Y-2.08
X8.32Y-2.83
T2
G00X4.6749Y-1.0319
M15
G01X4.6749Y-1.0555
M16
G05
G00X4.6749Y-1.1866
M15
G01X4.6749Y-1.2299
M16
G05
G00X5.0151Y-1.0319
M15
G01X5.0151Y-1.0555
M16
G05
G00X5.0151Y-1.1866
M15
G01X5.0151Y-1.2299
M16
G05
M30
