%TF.GenerationSoftware,KiCad,Pcbnew,7.0.10*%
%TF.CreationDate,2024-02-28T00:26:24+11:00*%
%TF.ProjectId,wahoo30,7761686f-6f33-4302-9e6b-696361645f70,rev?*%
%TF.SameCoordinates,Original*%
%TF.FileFunction,Soldermask,Bot*%
%TF.FilePolarity,Negative*%
%FSLAX46Y46*%
G04 Gerber Fmt 4.6, Leading zero omitted, Abs format (unit mm)*
G04 Created by KiCad (PCBNEW 7.0.10) date 2024-02-28 00:26:24*
%MOMM*%
%LPD*%
G01*
G04 APERTURE LIST*
G04 Aperture macros list*
%AMRoundRect*
0 Rectangle with rounded corners*
0 $1 Rounding radius*
0 $2 $3 $4 $5 $6 $7 $8 $9 X,Y pos of 4 corners*
0 Add a 4 corners polygon primitive as box body*
4,1,4,$2,$3,$4,$5,$6,$7,$8,$9,$2,$3,0*
0 Add four circle primitives for the rounded corners*
1,1,$1+$1,$2,$3*
1,1,$1+$1,$4,$5*
1,1,$1+$1,$6,$7*
1,1,$1+$1,$8,$9*
0 Add four rect primitives between the rounded corners*
20,1,$1+$1,$2,$3,$4,$5,0*
20,1,$1+$1,$4,$5,$6,$7,0*
20,1,$1+$1,$6,$7,$8,$9,0*
20,1,$1+$1,$8,$9,$2,$3,0*%
G04 Aperture macros list end*
%ADD10C,1.750000*%
%ADD11C,4.000000*%
%ADD12C,2.500000*%
%ADD13C,2.200000*%
%ADD14R,1.350000X1.350000*%
%ADD15O,1.350000X1.350000*%
%ADD16RoundRect,0.250000X-0.450000X0.325000X-0.450000X-0.325000X0.450000X-0.325000X0.450000X0.325000X0*%
%ADD17RoundRect,0.250000X-0.450000X0.350000X-0.450000X-0.350000X0.450000X-0.350000X0.450000X0.350000X0*%
%ADD18RoundRect,0.250000X-0.350000X-0.450000X0.350000X-0.450000X0.350000X0.450000X-0.350000X0.450000X0*%
%ADD19C,0.650000*%
%ADD20R,0.600000X1.450000*%
%ADD21R,0.300000X1.450000*%
%ADD22O,1.000000X1.600000*%
%ADD23O,1.000000X2.100000*%
%ADD24RoundRect,0.250000X-0.325000X-0.450000X0.325000X-0.450000X0.325000X0.450000X-0.325000X0.450000X0*%
%ADD25RoundRect,0.150000X0.512500X0.150000X-0.512500X0.150000X-0.512500X-0.150000X0.512500X-0.150000X0*%
%ADD26RoundRect,0.100000X-0.100000X0.637500X-0.100000X-0.637500X0.100000X-0.637500X0.100000X0.637500X0*%
%ADD27R,3.350000X2.150000*%
%ADD28RoundRect,0.250000X0.350000X0.450000X-0.350000X0.450000X-0.350000X-0.450000X0.350000X-0.450000X0*%
G04 APERTURE END LIST*
D10*
%TO.C,SW22*%
X146558000Y-57912000D03*
D11*
X151638000Y-57912000D03*
D10*
X156718000Y-57912000D03*
D12*
X147828000Y-55372000D03*
X154178000Y-52832000D03*
%TD*%
D10*
%TO.C,SW20*%
X127508000Y-76962000D03*
D11*
X132588000Y-76962000D03*
D10*
X137668000Y-76962000D03*
D12*
X128778000Y-74422000D03*
X135128000Y-71882000D03*
%TD*%
D10*
%TO.C,SW16*%
X108458000Y-57912000D03*
D11*
X113538000Y-57912000D03*
D10*
X118618000Y-57912000D03*
D12*
X109728000Y-55372000D03*
X116078000Y-52832000D03*
%TD*%
D10*
%TO.C,SW14*%
X89408000Y-76962000D03*
D11*
X94488000Y-76962000D03*
D10*
X99568000Y-76962000D03*
D12*
X90678000Y-74422000D03*
X97028000Y-71882000D03*
%TD*%
D10*
%TO.C,SW21*%
X146558000Y-38862000D03*
D11*
X151638000Y-38862000D03*
D10*
X156718000Y-38862000D03*
D12*
X147828000Y-36322000D03*
X154178000Y-33782000D03*
%TD*%
D10*
%TO.C,SW31*%
X203708000Y-57912000D03*
D11*
X208788000Y-57912000D03*
D10*
X213868000Y-57912000D03*
D12*
X204978000Y-55372000D03*
X211328000Y-52832000D03*
%TD*%
D10*
%TO.C,SW3*%
X32258000Y-38862000D03*
D11*
X37338000Y-38862000D03*
D10*
X42418000Y-38862000D03*
D12*
X33528000Y-36322000D03*
X39878000Y-33782000D03*
%TD*%
D10*
%TO.C,SW4*%
X32258000Y-57912000D03*
D11*
X37338000Y-57912000D03*
D10*
X42418000Y-57912000D03*
D12*
X33528000Y-55372000D03*
X39878000Y-52832000D03*
%TD*%
D13*
%TO.C,H1*%
X46863000Y-67437000D03*
%TD*%
D10*
%TO.C,SW10*%
X70358000Y-57912000D03*
D11*
X75438000Y-57912000D03*
D10*
X80518000Y-57912000D03*
D12*
X71628000Y-55372000D03*
X77978000Y-52832000D03*
%TD*%
D10*
%TO.C,SW30*%
X203708000Y-38862000D03*
D11*
X208788000Y-38862000D03*
D10*
X213868000Y-38862000D03*
D12*
X204978000Y-36322000D03*
X211328000Y-33782000D03*
%TD*%
D10*
%TO.C,SW7*%
X51308000Y-57912000D03*
D11*
X56388000Y-57912000D03*
D10*
X61468000Y-57912000D03*
D12*
X52578000Y-55372000D03*
X58928000Y-52832000D03*
%TD*%
D10*
%TO.C,SW6*%
X51308000Y-38862000D03*
D11*
X56388000Y-38862000D03*
D10*
X61468000Y-38862000D03*
D12*
X52578000Y-36322000D03*
X58928000Y-33782000D03*
%TD*%
D10*
%TO.C,SW5*%
X32258000Y-76962000D03*
D11*
X37338000Y-76962000D03*
D10*
X42418000Y-76962000D03*
D12*
X33528000Y-74422000D03*
X39878000Y-71882000D03*
%TD*%
D14*
%TO.C,SW1*%
X29591000Y-66437000D03*
D15*
X29591000Y-68437000D03*
%TD*%
D13*
%TO.C,H5*%
X123063000Y-57912000D03*
%TD*%
D10*
%TO.C,SW17*%
X108458000Y-76962000D03*
D11*
X113538000Y-76962000D03*
D10*
X118618000Y-76962000D03*
D12*
X109728000Y-74422000D03*
X116078000Y-71882000D03*
%TD*%
D10*
%TO.C,SW8*%
X51308000Y-76962000D03*
D11*
X56388000Y-76962000D03*
D10*
X61468000Y-76962000D03*
D12*
X52578000Y-74422000D03*
X58928000Y-71882000D03*
%TD*%
D10*
%TO.C,SW19*%
X127508000Y-57912000D03*
D11*
X132588000Y-57912000D03*
D10*
X137668000Y-57912000D03*
D12*
X128778000Y-55372000D03*
X135128000Y-52832000D03*
%TD*%
D14*
%TO.C,SW2*%
X29591000Y-49276000D03*
D15*
X29591000Y-47276000D03*
%TD*%
D10*
%TO.C,SW27*%
X184658000Y-38862000D03*
D11*
X189738000Y-38862000D03*
D10*
X194818000Y-38862000D03*
D12*
X185928000Y-36322000D03*
X192278000Y-33782000D03*
%TD*%
D10*
%TO.C,SW32*%
X203708000Y-76962000D03*
D11*
X208788000Y-76962000D03*
D10*
X213868000Y-76962000D03*
D12*
X204978000Y-74422000D03*
X211328000Y-71882000D03*
%TD*%
D10*
%TO.C,SW28*%
X184658000Y-57912000D03*
D11*
X189738000Y-57912000D03*
D10*
X194818000Y-57912000D03*
D12*
X185928000Y-55372000D03*
X192278000Y-52832000D03*
%TD*%
D13*
%TO.C,H2*%
X46863000Y-48387000D03*
%TD*%
D10*
%TO.C,SW9*%
X70358000Y-38862000D03*
D11*
X75438000Y-38862000D03*
D10*
X80518000Y-38862000D03*
D12*
X71628000Y-36322000D03*
X77978000Y-33782000D03*
%TD*%
D13*
%TO.C,H4*%
X199263000Y-67437000D03*
%TD*%
D10*
%TO.C,SW18*%
X127508000Y-38862000D03*
D11*
X132588000Y-38862000D03*
D10*
X137668000Y-38862000D03*
D12*
X128778000Y-36322000D03*
X135128000Y-33782000D03*
%TD*%
D10*
%TO.C,SW13*%
X89408000Y-57912000D03*
D11*
X94488000Y-57912000D03*
D10*
X99568000Y-57912000D03*
D12*
X90678000Y-55372000D03*
X97028000Y-52832000D03*
%TD*%
D10*
%TO.C,SW29*%
X184658000Y-76962000D03*
D11*
X189738000Y-76962000D03*
D10*
X194818000Y-76962000D03*
D12*
X185928000Y-74422000D03*
X192278000Y-71882000D03*
%TD*%
D10*
%TO.C,SW11*%
X70358000Y-76962000D03*
D11*
X75438000Y-76962000D03*
D10*
X80518000Y-76962000D03*
D12*
X71628000Y-74422000D03*
X77978000Y-71882000D03*
%TD*%
D13*
%TO.C,H3*%
X199263000Y-48387000D03*
%TD*%
D10*
%TO.C,SW15*%
X108458000Y-38862000D03*
D11*
X113538000Y-38862000D03*
D10*
X118618000Y-38862000D03*
D12*
X109728000Y-36322000D03*
X116078000Y-33782000D03*
%TD*%
D10*
%TO.C,SW25*%
X165608000Y-57912000D03*
D11*
X170688000Y-57912000D03*
D10*
X175768000Y-57912000D03*
D12*
X166878000Y-55372000D03*
X173228000Y-52832000D03*
%TD*%
D10*
%TO.C,SW26*%
X165608000Y-76962000D03*
D11*
X170688000Y-76962000D03*
D10*
X175768000Y-76962000D03*
D12*
X166878000Y-74422000D03*
X173228000Y-71882000D03*
%TD*%
D10*
%TO.C,SW23*%
X146558000Y-76962000D03*
D11*
X151638000Y-76962000D03*
D10*
X156718000Y-76962000D03*
D12*
X147828000Y-74422000D03*
X154178000Y-71882000D03*
%TD*%
D10*
%TO.C,SW12*%
X89408000Y-38862000D03*
D11*
X94488000Y-38862000D03*
D10*
X99568000Y-38862000D03*
D12*
X90678000Y-36322000D03*
X97028000Y-33782000D03*
%TD*%
D10*
%TO.C,SW24*%
X165608000Y-38862000D03*
D11*
X170688000Y-38862000D03*
D10*
X175768000Y-38862000D03*
D12*
X166878000Y-36322000D03*
X173228000Y-33782000D03*
%TD*%
D16*
%TO.C,D22*%
X162255000Y-31758000D03*
X162255000Y-33808000D03*
%TD*%
%TO.C,F1*%
X119126000Y-42917000D03*
X119126000Y-44967000D03*
%TD*%
%TO.C,D1*%
X45720000Y-31749000D03*
X45720000Y-33799000D03*
%TD*%
%TO.C,D11*%
X86055000Y-50300000D03*
X86055000Y-52350000D03*
%TD*%
D17*
%TO.C,R4*%
X32450000Y-47243000D03*
X32450000Y-49243000D03*
%TD*%
D16*
%TO.C,D23*%
X162255000Y-50808000D03*
X162255000Y-52858000D03*
%TD*%
%TO.C,D8*%
X83769000Y-50300000D03*
X83769000Y-52350000D03*
%TD*%
D18*
%TO.C,R1*%
X129632000Y-30572000D03*
X131632000Y-30572000D03*
%TD*%
D16*
%TO.C,D10*%
X86055000Y-31758000D03*
X86055000Y-33808000D03*
%TD*%
%TO.C,D20*%
X159969000Y-50808000D03*
X159969000Y-52858000D03*
%TD*%
D19*
%TO.C,J3*%
X120173000Y-30159000D03*
X125953000Y-30159000D03*
D20*
X119813000Y-31604000D03*
X120613000Y-31604000D03*
D21*
X121813000Y-31604000D03*
X122813000Y-31604000D03*
X123313000Y-31604000D03*
X124313000Y-31604000D03*
D20*
X125513000Y-31604000D03*
X126313000Y-31604000D03*
X126313000Y-31604000D03*
X125513000Y-31604000D03*
D21*
X124813000Y-31604000D03*
X123813000Y-31604000D03*
X122313000Y-31604000D03*
X121313000Y-31604000D03*
D20*
X120613000Y-31604000D03*
X119813000Y-31604000D03*
D22*
X118743000Y-26509000D03*
D23*
X118743000Y-30689000D03*
D22*
X127383000Y-26509000D03*
D23*
X127383000Y-30689000D03*
%TD*%
D16*
%TO.C,D24*%
X162255000Y-69858000D03*
X162255000Y-71908000D03*
%TD*%
D24*
%TO.C,C1*%
X64964000Y-56151000D03*
X67014000Y-56151000D03*
%TD*%
D16*
%TO.C,D19*%
X159969000Y-31758000D03*
X159969000Y-33808000D03*
%TD*%
%TO.C,D31*%
X127254000Y-42917000D03*
X127254000Y-44967000D03*
%TD*%
%TO.C,D28*%
X200609000Y-31758000D03*
X200609000Y-33808000D03*
%TD*%
%TO.C,D12*%
X86055000Y-69858000D03*
X86055000Y-71908000D03*
%TD*%
%TO.C,D14*%
X121869000Y-50808000D03*
X121869000Y-52858000D03*
%TD*%
%TO.C,D26*%
X198069000Y-53856000D03*
X198069000Y-55906000D03*
%TD*%
%TO.C,D25*%
X198323000Y-31758000D03*
X198323000Y-33808000D03*
%TD*%
D24*
%TO.C,C3*%
X64964000Y-58437000D03*
X67014000Y-58437000D03*
%TD*%
D16*
%TO.C,D30*%
X200355000Y-73143000D03*
X200355000Y-75193000D03*
%TD*%
%TO.C,D2*%
X45720000Y-53602000D03*
X45720000Y-55652000D03*
%TD*%
%TO.C,D9*%
X83769000Y-69858000D03*
X83769000Y-71908000D03*
%TD*%
%TO.C,D16*%
X142240000Y-31741000D03*
X142240000Y-33791000D03*
%TD*%
%TO.C,D15*%
X121869000Y-69858000D03*
X121869000Y-71908000D03*
%TD*%
%TO.C,D5*%
X47955000Y-53602000D03*
X47955000Y-55652000D03*
%TD*%
%TO.C,D17*%
X124155000Y-50808000D03*
X124155000Y-52858000D03*
%TD*%
D25*
%TO.C,U2*%
X124139500Y-36134000D03*
X124139500Y-37084000D03*
X124139500Y-38034000D03*
X121864500Y-38034000D03*
X121864500Y-37084000D03*
X121864500Y-36134000D03*
%TD*%
D16*
%TO.C,D21*%
X159969000Y-69858000D03*
X159969000Y-71908000D03*
%TD*%
%TO.C,D18*%
X124155000Y-69858000D03*
X124155000Y-71908000D03*
%TD*%
D26*
%TO.C,U1*%
X63193000Y-45848500D03*
X63843000Y-45848500D03*
X64493000Y-45848500D03*
X65143000Y-45848500D03*
X65793000Y-45848500D03*
X66443000Y-45848500D03*
X67093000Y-45848500D03*
X67743000Y-45848500D03*
X68393000Y-45848500D03*
X69043000Y-45848500D03*
X69043000Y-51623500D03*
X68393000Y-51623500D03*
X67743000Y-51623500D03*
X67093000Y-51623500D03*
X66443000Y-51623500D03*
X65793000Y-51623500D03*
X65143000Y-51623500D03*
X64493000Y-51623500D03*
X63843000Y-51623500D03*
X63193000Y-51623500D03*
D27*
X66118000Y-48736000D03*
%TD*%
D16*
%TO.C,D4*%
X48006000Y-31749000D03*
X48006000Y-33799000D03*
%TD*%
%TO.C,D7*%
X83769000Y-31749000D03*
X83769000Y-33799000D03*
%TD*%
%TO.C,D13*%
X103886000Y-31749000D03*
X103886000Y-33799000D03*
%TD*%
%TO.C,D29*%
X200355000Y-53856000D03*
X200355000Y-55906000D03*
%TD*%
%TO.C,D27*%
X198069000Y-73143000D03*
X198069000Y-75193000D03*
%TD*%
%TO.C,D3*%
X45720000Y-73397000D03*
X45720000Y-75447000D03*
%TD*%
%TO.C,D6*%
X47955000Y-73414000D03*
X47955000Y-75464000D03*
%TD*%
D28*
%TO.C,R2*%
X116392000Y-30572000D03*
X114392000Y-30572000D03*
%TD*%
M02*
