M48
; DRILL file {KiCad 7.0.10} date Wed 28 Feb 2024 12:26:21 AM AEDT
; FORMAT={-:-/ absolute / inch / decimal}
; #@! TF.CreationDate,2024-02-28T00:26:21+11:00
; #@! TF.GenerationSoftware,Kicad,Pcbnew,7.0.10
; #@! TF.FileFunction,NonPlated,1,2,NPTH
FMAT,2
INCH
; #@! TA.AperFunction,NonPlated,NPTH,ComponentDrill
T1C0.0256
; #@! TA.AperFunction,NonPlated,NPTH,ComponentDrill
T2C0.0689
; #@! TA.AperFunction,NonPlated,NPTH,ComponentDrill
T3C0.0866
; #@! TA.AperFunction,NonPlated,NPTH,ComponentDrill
T4C0.1575
%
G90
G05
T1
X4.7312Y-1.1874
X4.9588Y-1.1874
T2
X1.27Y-1.53
X1.27Y-2.28
X1.27Y-3.03
X1.67Y-1.53
X1.67Y-2.28
X1.67Y-3.03
X2.02Y-1.53
X2.02Y-2.28
X2.02Y-3.03
X2.42Y-1.53
X2.42Y-2.28
X2.42Y-3.03
X2.77Y-1.53
X2.77Y-2.28
X2.77Y-3.03
X3.17Y-1.53
X3.17Y-2.28
X3.17Y-3.03
X3.52Y-1.53
X3.52Y-2.28
X3.52Y-3.03
X3.92Y-1.53
X3.92Y-2.28
X3.92Y-3.03
X4.27Y-1.53
X4.27Y-2.28
X4.27Y-3.03
X4.67Y-1.53
X4.67Y-2.28
X4.67Y-3.03
X5.02Y-1.53
X5.02Y-2.28
X5.02Y-3.03
X5.42Y-1.53
X5.42Y-2.28
X5.42Y-3.03
X5.77Y-1.53
X5.77Y-2.28
X5.77Y-3.03
X6.17Y-1.53
X6.17Y-2.28
X6.17Y-3.03
X6.52Y-1.53
X6.52Y-2.28
X6.52Y-3.03
X6.92Y-1.53
X6.92Y-2.28
X6.92Y-3.03
X7.27Y-1.53
X7.27Y-2.28
X7.27Y-3.03
X7.67Y-1.53
X7.67Y-2.28
X7.67Y-3.03
X8.02Y-1.53
X8.02Y-2.28
X8.02Y-3.03
X8.42Y-1.53
X8.42Y-2.28
X8.42Y-3.03
T3
X1.845Y-1.905
X1.845Y-2.655
X4.845Y-2.28
X7.845Y-1.905
X7.845Y-2.655
T4
X1.47Y-1.53
X1.47Y-2.28
X1.47Y-3.03
X2.22Y-1.53
X2.22Y-2.28
X2.22Y-3.03
X2.97Y-1.53
X2.97Y-2.28
X2.97Y-3.03
X3.72Y-1.53
X3.72Y-2.28
X3.72Y-3.03
X4.47Y-1.53
X4.47Y-2.28
X4.47Y-3.03
X5.22Y-1.53
X5.22Y-2.28
X5.22Y-3.03
X5.97Y-1.53
X5.97Y-2.28
X5.97Y-3.03
X6.72Y-1.53
X6.72Y-2.28
X6.72Y-3.03
X7.47Y-1.53
X7.47Y-2.28
X7.47Y-3.03
X8.22Y-1.53
X8.22Y-2.28
X8.22Y-3.03
M30
